<?xml version="1.0" standalone="no"?>
<!DOCTYPE svg PUBLIC "-//W3C//DTD SVG 20010904//EN"
 "http://www.w3.org/TR/2001/REC-SVG-20010904/DTD/svg10.dtd">
<svg version="1.0" xmlns="http://www.w3.org/2000/svg"
 width="90.000000pt" height="90.000000pt" viewBox="0 0 90.000000 90.000000"
 preserveAspectRatio="xMidYMid meet">
<metadata>
Created by potrace 1.14, written by Peter Selinger 2001-2017
</metadata>
<g transform="translate(0.000000,90.000000) scale(0.100000,-0.100000)"
fill="#000000" stroke="none">
<path d="M0 450 l0 -450 450 0 450 0 0 450 0 450 -450 0 -450 0 0 -450z m94
282 c10 -26 49 -111 87 -188 72 -149 82 -188 50 -197 -20 -5 -18 -8 -137 238
-37 78 -64 151 -64 178 0 11 8 17 23 17 17 0 26 -11 41 -48z m594 -57 c13 -38
38 -126 57 -195 18 -69 45 -164 60 -211 26 -83 29 -139 6 -139 -17 0 -51 87
-80 201 -44 174 -79 291 -90 302 -7 7 -12 0 -17 -18 -4 -16 -13 -40 -20 -54
-8 -14 -17 -41 -20 -58 -7 -36 -37 -46 -48 -17 -7 18 49 206 72 242 28 43 54
25 80 -53z m-285 58 c2 -5 -4 -21 -14 -38 -32 -53 -67 -130 -74 -160 -13 -59
-17 -65 -35 -65 -49 0 -17 145 52 233 27 34 61 48 71 30z m-5 -190 c5 -33 -35
-103 -58 -103 -14 0 -20 7 -20 24 0 24 22 85 36 99 14 14 39 2 42 -20z m280
-153 c18 0 15 -37 -4 -44 -48 -18 -114 -1 -114 30 0 13 51 24 85 18 11 -2 26
-4 33 -4z m-417 -66 c10 -12 10 -32 1 -100 -13 -97 -16 -104 -44 -104 -20 0
-20 3 -13 98 8 115 24 145 56 106z"/>
</g>
</svg>
